name rise35.5848peak51.9257fall54.8793.mot
datacolumns 19
datarows 26
range 19.24492400000000 19.28659100000000
endheader
time	ground_force1_vx	ground_force1_vy	ground_force1_vz	ground_force1_px	ground_force1_py	ground_force1_pz	ground_force2_vx	ground_force2_vy	ground_force2_vz	ground_force2_px	ground_force2_py	ground_force2_pz	ground_torque1_x	ground_torque1_y	ground_torque1_z	ground_torque2_x	ground_torque2_y	ground_torque2_z	
19.24492400000000	-38.30964900000000	801.02692600000000	56.40362200000000	0.09907300000000	0.00000000000000	0.10785600000000	-2.18960900000000	65.07886300000000	6.31345200000000	0.32554200000000	0.00000000000000	-0.09920500000000	0.00000000000000	20.42618900000000	0.00000000000000	0.00000000000000	4.22079000000000	0.00000000000000	
19.24658600000000	-38.90036400000000	799.88990200000001	56.36325700000000	0.09829300000000	0.00000000000000	0.10775900000000	-2.24287600000000	70.93823500000001	6.70776900000000	0.32919200000000	0.00000000000000	-0.09936900000000	0.00000000000000	20.39887100000000	0.00000000000000	0.00000000000000	4.53223700000000	0.00000000000000	
19.24825500000000	-39.50517100000000	798.64430900000002	56.30382600000000	0.09752000000000	0.00000000000000	0.10765800000000	-2.25391600000000	76.54686200000000	7.04311500000000	0.33255900000000	0.00000000000000	-0.09952500000000	0.00000000000000	20.37132400000000	0.00000000000000	0.00000000000000	4.81074200000000	0.00000000000000	
19.24992100000000	-40.12441200000000	797.28748499999995	56.22482800000000	0.09675300000000	0.00000000000000	0.10755400000000	-2.22198900000000	81.91190100000000	7.32080100000000	0.33567000000000	0.00000000000000	-0.09967700000000	0.00000000000000	20.34362000000000	0.00000000000000	0.00000000000000	5.05680900000000	0.00000000000000	
19.25158500000000	-40.75836800000000	795.81674999999996	56.12578400000000	0.09599100000000	0.00000000000000	0.10744600000000	-2.14735900000000	87.05947500000001	7.54435100000000	0.33854600000000	0.00000000000000	-0.09982400000000	0.00000000000000	20.31582000000000	0.00000000000000	0.00000000000000	5.27249800000000	0.00000000000000	
19.25325200000000	-41.40725700000000	794.22940800000003	56.00624700000000	0.09523400000000	0.00000000000000	0.10733500000000	-2.03102700000000	92.02969700000000	7.71885700000000	0.34120700000000	0.00000000000000	-0.09997000000000	0.00000000000000	20.28797600000000	0.00000000000000	0.00000000000000	5.46100100000000	0.00000000000000	
19.25492400000000	-42.07122700000000	792.52274399999999	55.86579700000000	0.09448200000000	0.00000000000000	0.10722100000000	-1.87446900000000	96.87141600000000	7.85029900000000	0.34366900000000	0.00000000000000	-0.10011300000000	0.00000000000000	20.26013000000000	0.00000000000000	0.00000000000000	5.62619800000000	0.00000000000000	
19.25659400000000	-42.75035500000000	790.69403599999998	55.70404800000000	0.09373200000000	0.00000000000000	0.10710300000000	-1.67937400000000	101.63716200000000	7.94492300000000	0.34594600000000	0.00000000000000	-0.10025700000000	0.00000000000000	20.23231500000000	0.00000000000000	0.00000000000000	5.77222600000000	0.00000000000000	
19.25825100000000	-43.44464200000000	788.74054799999999	55.52064700000000	0.09298500000000	0.00000000000000	0.10698200000000	-1.44742500000000	106.37866099999999	8.00870000000000	0.34805100000000	0.00000000000000	-0.10040000000000	0.00000000000000	20.20455400000000	0.00000000000000	0.00000000000000	5.90311200000000	0.00000000000000	
19.25992200000000	-44.15401100000000	786.65953900000000	55.31527600000000	0.09224000000000	0.00000000000000	0.10685800000000	-1.18012000000000	111.14316900000000	8.04690000000000	0.34999300000000	0.00000000000000	-0.10054500000000	0.00000000000000	20.17685700000000	0.00000000000000	0.00000000000000	6.02245900000000	0.00000000000000	
19.26159500000000	-44.87830300000000	784.44826399999999	55.08765300000000	0.09149600000000	0.00000000000000	0.10673100000000	-0.87864800000000	115.97077299999999	8.06379000000000	0.35178400000000	0.00000000000000	-0.10069100000000	0.00000000000000	20.14922700000000	0.00000000000000	0.00000000000000	6.13323600000000	0.00000000000000	
19.26325300000000	-45.61727500000000	782.10397799999998	54.83753600000000	0.09075200000000	0.00000000000000	0.10660100000000	-0.54381000000000	120.89269200000000	8.06246800000000	0.35343100000000	0.00000000000000	-0.10083900000000	0.00000000000000	20.12165300000000	0.00000000000000	0.00000000000000	6.23764200000000	0.00000000000000	
19.26491800000000	-46.37059500000000	779.62394200000006	54.56472000000000	0.09000800000000	0.00000000000000	0.10646900000000	-0.17599800000000	125.93052200000000	8.04480400000000	0.35494200000000	0.00000000000000	-0.10098900000000	0.00000000000000	20.09411600000000	0.00000000000000	0.00000000000000	6.33705300000000	0.00000000000000	
19.26658900000000	-47.13784200000000	777.00542299999995	54.26904400000000	0.08926100000000	0.00000000000000	0.10633300000000	0.22479100000000	131.09632199999999	8.01149500000000	0.35632400000000	0.00000000000000	-0.10114300000000	0.00000000000000	20.06658300000000	0.00000000000000	0.00000000000000	6.43205000000000	0.00000000000000	
19.26825800000000	-47.91850400000000	774.24570500000004	53.95038500000000	0.08851200000000	0.00000000000000	0.10619500000000	0.65890500000000	136.39337100000000	7.96218700000000	0.35758400000000	0.00000000000000	-0.10129900000000	0.00000000000000	20.03901200000000	0.00000000000000	0.00000000000000	6.52248700000000	0.00000000000000	
19.26992100000000	-48.71197300000000	771.34208699999999	53.60866600000000	0.08776000000000	0.00000000000000	0.10605400000000	1.12696200000000	141.81742700000001	7.89566500000000	0.35872600000000	0.00000000000000	-0.10145900000000	0.00000000000000	20.01134800000000	0.00000000000000	0.00000000000000	6.60761900000000	0.00000000000000	
19.27158700000000	-49.51754600000000	768.29189599999995	53.24385200000000	0.08700300000000	0.00000000000000	0.10591000000000	1.62976500000000	147.35828599999999	7.81006100000000	0.35975600000000	0.00000000000000	-0.10162200000000	0.00000000000000	19.98352700000000	0.00000000000000	0.00000000000000	6.68623900000000	0.00000000000000	
19.27326700000000	-50.33442400000000	765.09248600000001	52.85595300000000	0.08624200000000	0.00000000000000	0.10576400000000	2.16820900000000	153.00148899999999	7.70308600000000	0.36067800000000	0.00000000000000	-0.10178900000000	0.00000000000000	19.95547200000000	0.00000000000000	0.00000000000000	6.75683300000000	0.00000000000000	
19.27492000000000	-51.16170700000000	761.74124900000004	52.44502600000000	0.08547400000000	0.00000000000000	0.10561600000000	2.74318700000000	158.73000999999999	7.57224600000000	0.36149800000000	0.00000000000000	-0.10196000000000	0.00000000000000	19.92709700000000	0.00000000000000	0.00000000000000	6.81772700000000	0.00000000000000	
19.27658700000000	-51.99839900000000	758.23561800000004	52.01117000000000	0.08469900000000	0.00000000000000	0.10546500000000	3.35551700000000	164.52580499999999	7.41503300000000	0.36221800000000	0.00000000000000	-0.10213400000000	0.00000000000000	19.89830200000000	0.00000000000000	0.00000000000000	6.86722200000000	0.00000000000000	
19.27825300000000	-52.84340300000000	754.57307900000001	51.55453300000000	0.08391600000000	0.00000000000000	0.10531300000000	4.00586600000000	170.37114299999999	7.22909400000000	0.36284300000000	0.00000000000000	-0.10231300000000	0.00000000000000	19.86897900000000	0.00000000000000	0.00000000000000	6.90370800000000	0.00000000000000	
19.27991900000000	-53.69552300000000	750.75117399999999	51.07530800000000	0.08312500000000	0.00000000000000	0.10515900000000	4.69470100000000	176.24965900000001	7.01235200000000	0.36337600000000	0.00000000000000	-0.10249500000000	0.00000000000000	19.83900900000000	0.00000000000000	0.00000000000000	6.92575400000000	0.00000000000000	
19.28159000000000	-54.55346500000000	746.76750900000002	50.57373300000000	0.08232500000000	0.00000000000000	0.10500200000000	5.42225300000000	182.14710500000001	6.76309400000000	0.36382000000000	0.00000000000000	-0.10268100000000	0.00000000000000	19.80826000000000	0.00000000000000	0.00000000000000	6.93216100000000	0.00000000000000	
19.28325700000000	-55.41583600000000	742.61976800000002	50.05009300000000	0.08151400000000	0.00000000000000	0.10484400000000	6.18849700000000	188.05180899999999	6.48001500000000	0.36417800000000	0.00000000000000	-0.10287100000000	0.00000000000000	19.77659400000000	0.00000000000000	0.00000000000000	6.92200600000000	0.00000000000000	
19.28492300000000	-56.28114900000000	738.30571899999995	49.50472000000000	0.08069200000000	0.00000000000000	0.10468500000000	6.99314400000000	193.95485600000001	6.16223700000000	0.36445400000000	0.00000000000000	-0.10306500000000	0.00000000000000	19.74385900000000	0.00000000000000	0.00000000000000	6.89464400000000	0.00000000000000	
19.28659100000000	-57.14782000000000	733.82322299999998	48.93798900000000	0.07985900000000	0.00000000000000	0.10452400000000	7.83565000000000	199.85004900000001	5.80929000000000	0.36464900000000	0.00000000000000	-0.10326200000000	0.00000000000000	19.70989600000000	0.00000000000000	0.00000000000000	6.84970500000000	0.00000000000000	
